<svg xmlns="http://www.w3.org/2000/svg" version="1.1" xmlns:xlink="http://www.w3.org/1999/xlink" xmlns:svgjs="http://svgjs.dev/svgjs" viewBox="0 0 800 800" opacity="1" width="800" height="800"><g stroke-width="3.5" stroke="hsla(138, 51%, 71%, 1.00)" fill="none"><rect width="30.76923076923077" height="8.578947368421051" x="-15.384615384615385" y="-4.289473684210526" stroke="none" fill="hsl(316, 73%, 52%)" rx="4.289473684210526" transform="rotate(45, 0, 0)"></rect><rect width="8.578947368421051" height="30.76923076923077" x="-4.289473684210526" y="-15.384615384615385" stroke="none" fill="hsl(316, 73%, 52%)" rx="4.289473684210526" transform="rotate(45, 0, 0)"></rect><rect width="30.76923076923077" height="8.578947368421051" x="51.282051282051285" y="-4.289473684210526" stroke="none" fill="hsla(138, 51%, 71%, 1.00)" rx="4.289473684210526" transform="rotate(45, 66.66666666666667, 0)"></rect><rect width="8.578947368421051" height="30.76923076923077" x="62.377192982456144" y="-15.384615384615385" stroke="none" fill="hsla(138, 51%, 71%, 1.00)" rx="4.289473684210526" transform="rotate(45, 66.66666666666667, 0)"></rect><rect width="30.76923076923077" height="8.578947368421051" x="117.94871794871796" y="-4.289473684210526" stroke="none" fill="hsl(316, 73%, 52%)" rx="4.289473684210526" transform="rotate(45, 133.33333333333334, 0)"></rect><rect width="8.578947368421051" height="30.76923076923077" x="129.04385964912282" y="-15.384615384615385" stroke="none" fill="hsl(316, 73%, 52%)" rx="4.289473684210526" transform="rotate(45, 133.33333333333334, 0)"></rect><rect width="30.76923076923077" height="8.578947368421051" x="184.6153846153846" y="-4.289473684210526" stroke="none" fill="hsla(138, 51%, 71%, 1.00)" rx="4.289473684210526" transform="rotate(45, 200, 0)"></rect><rect width="8.578947368421051" height="30.76923076923077" x="195.71052631578948" y="-15.384615384615385" stroke="none" fill="hsla(138, 51%, 71%, 1.00)" rx="4.289473684210526" transform="rotate(45, 200, 0)"></rect><rect width="30.76923076923077" height="8.578947368421051" x="251.2820512820513" y="-4.289473684210526" stroke="none" fill="hsl(316, 73%, 52%)" rx="4.289473684210526" transform="rotate(45, 266.6666666666667, 0)"></rect><rect width="8.578947368421051" height="30.76923076923077" x="262.37719298245617" y="-15.384615384615385" stroke="none" fill="hsl(316, 73%, 52%)" rx="4.289473684210526" transform="rotate(45, 266.6666666666667, 0)"></rect><rect width="30.76923076923077" height="8.578947368421051" x="317.948717948718" y="-4.289473684210526" stroke="none" fill="hsla(138, 51%, 71%, 1.00)" rx="4.289473684210526" transform="rotate(45, 333.33333333333337, 0)"></rect><rect width="8.578947368421051" height="30.76923076923077" x="329.04385964912285" y="-15.384615384615385" stroke="none" fill="hsla(138, 51%, 71%, 1.00)" rx="4.289473684210526" transform="rotate(45, 333.33333333333337, 0)"></rect><rect width="30.76923076923077" height="8.578947368421051" x="384.6153846153847" y="-4.289473684210526" stroke="none" fill="hsl(316, 73%, 52%)" rx="4.289473684210526" transform="rotate(45, 400.00000000000006, 0)"></rect><rect width="8.578947368421051" height="30.76923076923077" x="395.71052631578954" y="-15.384615384615385" stroke="none" fill="hsl(316, 73%, 52%)" rx="4.289473684210526" transform="rotate(45, 400.00000000000006, 0)"></rect><rect width="30.76923076923077" height="8.578947368421051" x="451.2820512820514" y="-4.289473684210526" stroke="none" fill="hsla(138, 51%, 71%, 1.00)" rx="4.289473684210526" transform="rotate(45, 466.66666666666674, 0)"></rect><rect width="8.578947368421051" height="30.76923076923077" x="462.3771929824562" y="-15.384615384615385" stroke="none" fill="hsla(138, 51%, 71%, 1.00)" rx="4.289473684210526" transform="rotate(45, 466.66666666666674, 0)"></rect><rect width="30.76923076923077" height="8.578947368421051" x="517.948717948718" y="-4.289473684210526" stroke="none" fill="hsl(316, 73%, 52%)" rx="4.289473684210526" transform="rotate(45, 533.3333333333334, 0)"></rect><rect width="8.578947368421051" height="30.76923076923077" x="529.0438596491229" y="-15.384615384615385" stroke="none" fill="hsl(316, 73%, 52%)" rx="4.289473684210526" transform="rotate(45, 533.3333333333334, 0)"></rect><rect width="30.76923076923077" height="8.578947368421051" x="584.6153846153846" y="-4.289473684210526" stroke="none" fill="hsla(138, 51%, 71%, 1.00)" rx="4.289473684210526" transform="rotate(45, 600, 0)"></rect><rect width="8.578947368421051" height="30.76923076923077" x="595.7105263157895" y="-15.384615384615385" stroke="none" fill="hsla(138, 51%, 71%, 1.00)" rx="4.289473684210526" transform="rotate(45, 600, 0)"></rect><rect width="30.76923076923077" height="8.578947368421051" x="651.2820512820513" y="-4.289473684210526" stroke="none" fill="hsl(316, 73%, 52%)" rx="4.289473684210526" transform="rotate(45, 666.6666666666666, 0)"></rect><rect width="8.578947368421051" height="30.76923076923077" x="662.3771929824561" y="-15.384615384615385" stroke="none" fill="hsl(316, 73%, 52%)" rx="4.289473684210526" transform="rotate(45, 666.6666666666666, 0)"></rect><rect width="30.76923076923077" height="8.578947368421051" x="717.9487179487179" y="-4.289473684210526" stroke="none" fill="hsla(138, 51%, 71%, 1.00)" rx="4.289473684210526" transform="rotate(45, 733.3333333333333, 0)"></rect><rect width="8.578947368421051" height="30.76923076923077" x="729.0438596491227" y="-15.384615384615385" stroke="none" fill="hsla(138, 51%, 71%, 1.00)" rx="4.289473684210526" transform="rotate(45, 733.3333333333333, 0)"></rect><rect width="30.76923076923077" height="8.578947368421051" x="784.6153846153845" y="-4.289473684210526" stroke="none" fill="hsl(316, 73%, 52%)" rx="4.289473684210526" transform="rotate(45, 799.9999999999999, 0)"></rect><rect width="8.578947368421051" height="30.76923076923077" x="795.7105263157894" y="-15.384615384615385" stroke="none" fill="hsl(316, 73%, 52%)" rx="4.289473684210526" transform="rotate(45, 799.9999999999999, 0)"></rect><rect width="30.76923076923077" height="8.578947368421051" x="-15.384615384615385" y="57.24898785425101" stroke="none" fill="hsla(138, 51%, 71%, 1.00)" rx="4.289473684210526" transform="rotate(45, 0, 61.53846153846154)"></rect><rect width="8.578947368421051" height="30.76923076923077" x="-4.289473684210526" y="46.15384615384615" stroke="none" fill="hsla(138, 51%, 71%, 1.00)" rx="4.289473684210526" transform="rotate(45, 0, 61.53846153846154)"></rect><rect width="30.76923076923077" height="8.578947368421051" x="51.282051282051285" y="57.24898785425101" stroke="none" fill="hsl(316, 73%, 52%)" rx="4.289473684210526" transform="rotate(45, 66.66666666666667, 61.53846153846154)"></rect><rect width="8.578947368421051" height="30.76923076923077" x="62.377192982456144" y="46.15384615384615" stroke="none" fill="hsl(316, 73%, 52%)" rx="4.289473684210526" transform="rotate(45, 66.66666666666667, 61.53846153846154)"></rect><rect width="30.76923076923077" height="8.578947368421051" x="117.94871794871796" y="57.24898785425101" stroke="none" fill="hsla(138, 51%, 71%, 1.00)" rx="4.289473684210526" transform="rotate(45, 133.33333333333334, 61.53846153846154)"></rect><rect width="8.578947368421051" height="30.76923076923077" x="129.04385964912282" y="46.15384615384615" stroke="none" fill="hsla(138, 51%, 71%, 1.00)" rx="4.289473684210526" transform="rotate(45, 133.33333333333334, 61.53846153846154)"></rect><rect width="30.76923076923077" height="8.578947368421051" x="184.6153846153846" y="57.24898785425101" stroke="none" fill="hsl(316, 73%, 52%)" rx="4.289473684210526" transform="rotate(45, 200, 61.53846153846154)"></rect><rect width="8.578947368421051" height="30.76923076923077" x="195.71052631578948" y="46.15384615384615" stroke="none" fill="hsl(316, 73%, 52%)" rx="4.289473684210526" transform="rotate(45, 200, 61.53846153846154)"></rect><rect width="30.76923076923077" height="8.578947368421051" x="251.2820512820513" y="57.24898785425101" stroke="none" fill="hsla(138, 51%, 71%, 1.00)" rx="4.289473684210526" transform="rotate(45, 266.6666666666667, 61.53846153846154)"></rect><rect width="8.578947368421051" height="30.76923076923077" x="262.37719298245617" y="46.15384615384615" stroke="none" fill="hsla(138, 51%, 71%, 1.00)" rx="4.289473684210526" transform="rotate(45, 266.6666666666667, 61.53846153846154)"></rect><rect width="30.76923076923077" height="8.578947368421051" x="317.948717948718" y="57.24898785425101" stroke="none" fill="hsl(316, 73%, 52%)" rx="4.289473684210526" transform="rotate(45, 333.33333333333337, 61.53846153846154)"></rect><rect width="8.578947368421051" height="30.76923076923077" x="329.04385964912285" y="46.15384615384615" stroke="none" fill="hsl(316, 73%, 52%)" rx="4.289473684210526" transform="rotate(45, 333.33333333333337, 61.53846153846154)"></rect><rect width="30.76923076923077" height="8.578947368421051" x="384.6153846153847" y="57.24898785425101" stroke="none" fill="hsla(138, 51%, 71%, 1.00)" rx="4.289473684210526" transform="rotate(45, 400.00000000000006, 61.53846153846154)"></rect><rect width="8.578947368421051" height="30.76923076923077" x="395.71052631578954" y="46.15384615384615" stroke="none" fill="hsla(138, 51%, 71%, 1.00)" rx="4.289473684210526" transform="rotate(45, 400.00000000000006, 61.53846153846154)"></rect><rect width="30.76923076923077" height="8.578947368421051" x="451.2820512820514" y="57.24898785425101" stroke="none" fill="hsl(316, 73%, 52%)" rx="4.289473684210526" transform="rotate(45, 466.66666666666674, 61.53846153846154)"></rect><rect width="8.578947368421051" height="30.76923076923077" x="462.3771929824562" y="46.15384615384615" stroke="none" fill="hsl(316, 73%, 52%)" rx="4.289473684210526" transform="rotate(45, 466.66666666666674, 61.53846153846154)"></rect><rect width="30.76923076923077" height="8.578947368421051" x="517.948717948718" y="57.24898785425101" stroke="none" fill="hsla(138, 51%, 71%, 1.00)" rx="4.289473684210526" transform="rotate(45, 533.3333333333334, 61.53846153846154)"></rect><rect width="8.578947368421051" height="30.76923076923077" x="529.0438596491229" y="46.15384615384615" stroke="none" fill="hsla(138, 51%, 71%, 1.00)" rx="4.289473684210526" transform="rotate(45, 533.3333333333334, 61.53846153846154)"></rect><rect width="30.76923076923077" height="8.578947368421051" x="584.6153846153846" y="57.24898785425101" stroke="none" fill="hsl(316, 73%, 52%)" rx="4.289473684210526" transform="rotate(45, 600, 61.53846153846154)"></rect><rect width="8.578947368421051" height="30.76923076923077" x="595.7105263157895" y="46.15384615384615" stroke="none" fill="hsl(316, 73%, 52%)" rx="4.289473684210526" transform="rotate(45, 600, 61.53846153846154)"></rect><rect width="30.76923076923077" height="8.578947368421051" x="651.2820512820513" y="57.24898785425101" stroke="none" fill="hsla(138, 51%, 71%, 1.00)" rx="4.289473684210526" transform="rotate(45, 666.6666666666666, 61.53846153846154)"></rect><rect width="8.578947368421051" height="30.76923076923077" x="662.3771929824561" y="46.15384615384615" stroke="none" fill="hsla(138, 51%, 71%, 1.00)" rx="4.289473684210526" transform="rotate(45, 666.6666666666666, 61.53846153846154)"></rect><rect width="30.76923076923077" height="8.578947368421051" x="717.9487179487179" y="57.24898785425101" stroke="none" fill="hsl(316, 73%, 52%)" rx="4.289473684210526" transform="rotate(45, 733.3333333333333, 61.53846153846154)"></rect><rect width="8.578947368421051" height="30.76923076923077" x="729.0438596491227" y="46.15384615384615" stroke="none" fill="hsl(316, 73%, 52%)" rx="4.289473684210526" transform="rotate(45, 733.3333333333333, 61.53846153846154)"></rect><rect width="30.76923076923077" height="8.578947368421051" x="784.6153846153845" y="57.24898785425101" stroke="none" fill="hsla(138, 51%, 71%, 1.00)" rx="4.289473684210526" transform="rotate(45, 799.9999999999999, 61.53846153846154)"></rect><rect width="8.578947368421051" height="30.76923076923077" x="795.7105263157894" y="46.15384615384615" stroke="none" fill="hsla(138, 51%, 71%, 1.00)" rx="4.289473684210526" transform="rotate(45, 799.9999999999999, 61.53846153846154)"></rect><rect width="30.76923076923077" height="8.578947368421051" x="-15.384615384615385" y="118.78744939271256" stroke="none" fill="hsl(316, 73%, 52%)" rx="4.289473684210526" transform="rotate(45, 0, 123.07692307692308)"></rect><rect width="8.578947368421051" height="30.76923076923077" x="-4.289473684210526" y="107.6923076923077" stroke="none" fill="hsl(316, 73%, 52%)" rx="4.289473684210526" transform="rotate(45, 0, 123.07692307692308)"></rect><rect width="30.76923076923077" height="8.578947368421051" x="51.282051282051285" y="118.78744939271256" stroke="none" fill="hsla(138, 51%, 71%, 1.00)" rx="4.289473684210526" transform="rotate(45, 66.66666666666667, 123.07692307692308)"></rect><rect width="8.578947368421051" height="30.76923076923077" x="62.377192982456144" y="107.6923076923077" stroke="none" fill="hsla(138, 51%, 71%, 1.00)" rx="4.289473684210526" transform="rotate(45, 66.66666666666667, 123.07692307692308)"></rect><rect width="30.76923076923077" height="8.578947368421051" x="117.94871794871796" y="118.78744939271256" stroke="none" fill="hsl(316, 73%, 52%)" rx="4.289473684210526" transform="rotate(45, 133.33333333333334, 123.07692307692308)"></rect><rect width="8.578947368421051" height="30.76923076923077" x="129.04385964912282" y="107.6923076923077" stroke="none" fill="hsl(316, 73%, 52%)" rx="4.289473684210526" transform="rotate(45, 133.33333333333334, 123.07692307692308)"></rect><rect width="30.76923076923077" height="8.578947368421051" x="184.6153846153846" y="118.78744939271256" stroke="none" fill="hsla(138, 51%, 71%, 1.00)" rx="4.289473684210526" transform="rotate(45, 200, 123.07692307692308)"></rect><rect width="8.578947368421051" height="30.76923076923077" x="195.71052631578948" y="107.6923076923077" stroke="none" fill="hsla(138, 51%, 71%, 1.00)" rx="4.289473684210526" transform="rotate(45, 200, 123.07692307692308)"></rect><rect width="30.76923076923077" height="8.578947368421051" x="251.2820512820513" y="118.78744939271256" stroke="none" fill="hsl(316, 73%, 52%)" rx="4.289473684210526" transform="rotate(45, 266.6666666666667, 123.07692307692308)"></rect><rect width="8.578947368421051" height="30.76923076923077" x="262.37719298245617" y="107.6923076923077" stroke="none" fill="hsl(316, 73%, 52%)" rx="4.289473684210526" transform="rotate(45, 266.6666666666667, 123.07692307692308)"></rect><rect width="30.76923076923077" height="8.578947368421051" x="317.948717948718" y="118.78744939271256" stroke="none" fill="hsla(138, 51%, 71%, 1.00)" rx="4.289473684210526" transform="rotate(45, 333.33333333333337, 123.07692307692308)"></rect><rect width="8.578947368421051" height="30.76923076923077" x="329.04385964912285" y="107.6923076923077" stroke="none" fill="hsla(138, 51%, 71%, 1.00)" rx="4.289473684210526" transform="rotate(45, 333.33333333333337, 123.07692307692308)"></rect><rect width="30.76923076923077" height="8.578947368421051" x="384.6153846153847" y="118.78744939271256" stroke="none" fill="hsl(316, 73%, 52%)" rx="4.289473684210526" transform="rotate(45, 400.00000000000006, 123.07692307692308)"></rect><rect width="8.578947368421051" height="30.76923076923077" x="395.71052631578954" y="107.6923076923077" stroke="none" fill="hsl(316, 73%, 52%)" rx="4.289473684210526" transform="rotate(45, 400.00000000000006, 123.07692307692308)"></rect><rect width="30.76923076923077" height="8.578947368421051" x="451.2820512820514" y="118.78744939271256" stroke="none" fill="hsla(138, 51%, 71%, 1.00)" rx="4.289473684210526" transform="rotate(45, 466.66666666666674, 123.07692307692308)"></rect><rect width="8.578947368421051" height="30.76923076923077" x="462.3771929824562" y="107.6923076923077" stroke="none" fill="hsla(138, 51%, 71%, 1.00)" rx="4.289473684210526" transform="rotate(45, 466.66666666666674, 123.07692307692308)"></rect><rect width="30.76923076923077" height="8.578947368421051" x="517.948717948718" y="118.78744939271256" stroke="none" fill="hsl(316, 73%, 52%)" rx="4.289473684210526" transform="rotate(45, 533.3333333333334, 123.07692307692308)"></rect><rect width="8.578947368421051" height="30.76923076923077" x="529.0438596491229" y="107.6923076923077" stroke="none" fill="hsl(316, 73%, 52%)" rx="4.289473684210526" transform="rotate(45, 533.3333333333334, 123.07692307692308)"></rect><rect width="30.76923076923077" height="8.578947368421051" x="584.6153846153846" y="118.78744939271256" stroke="none" fill="hsla(138, 51%, 71%, 1.00)" rx="4.289473684210526" transform="rotate(45, 600, 123.07692307692308)"></rect><rect width="8.578947368421051" height="30.76923076923077" x="595.7105263157895" y="107.6923076923077" stroke="none" fill="hsla(138, 51%, 71%, 1.00)" rx="4.289473684210526" transform="rotate(45, 600, 123.07692307692308)"></rect><rect width="30.76923076923077" height="8.578947368421051" x="651.2820512820513" y="118.78744939271256" stroke="none" fill="hsl(316, 73%, 52%)" rx="4.289473684210526" transform="rotate(45, 666.6666666666666, 123.07692307692308)"></rect><rect width="8.578947368421051" height="30.76923076923077" x="662.3771929824561" y="107.6923076923077" stroke="none" fill="hsl(316, 73%, 52%)" rx="4.289473684210526" transform="rotate(45, 666.6666666666666, 123.07692307692308)"></rect><rect width="30.76923076923077" height="8.578947368421051" x="717.9487179487179" y="118.78744939271256" stroke="none" fill="hsla(138, 51%, 71%, 1.00)" rx="4.289473684210526" transform="rotate(45, 733.3333333333333, 123.07692307692308)"></rect><rect width="8.578947368421051" height="30.76923076923077" x="729.0438596491227" y="107.6923076923077" stroke="none" fill="hsla(138, 51%, 71%, 1.00)" rx="4.289473684210526" transform="rotate(45, 733.3333333333333, 123.07692307692308)"></rect><rect width="30.76923076923077" height="8.578947368421051" x="784.6153846153845" y="118.78744939271256" stroke="none" fill="hsl(316, 73%, 52%)" rx="4.289473684210526" transform="rotate(45, 799.9999999999999, 123.07692307692308)"></rect><rect width="8.578947368421051" height="30.76923076923077" x="795.7105263157894" y="107.6923076923077" stroke="none" fill="hsl(316, 73%, 52%)" rx="4.289473684210526" transform="rotate(45, 799.9999999999999, 123.07692307692308)"></rect><rect width="30.76923076923077" height="8.578947368421051" x="-15.384615384615385" y="180.3259109311741" stroke="none" fill="hsla(138, 51%, 71%, 1.00)" rx="4.289473684210526" transform="rotate(45, 0, 184.6153846153846)"></rect><rect width="8.578947368421051" height="30.76923076923077" x="-4.289473684210526" y="169.23076923076923" stroke="none" fill="hsla(138, 51%, 71%, 1.00)" rx="4.289473684210526" transform="rotate(45, 0, 184.6153846153846)"></rect><rect width="30.76923076923077" height="8.578947368421051" x="51.282051282051285" y="180.3259109311741" stroke="none" fill="hsl(316, 73%, 52%)" rx="4.289473684210526" transform="rotate(45, 66.66666666666667, 184.6153846153846)"></rect><rect width="8.578947368421051" height="30.76923076923077" x="62.377192982456144" y="169.23076923076923" stroke="none" fill="hsl(316, 73%, 52%)" rx="4.289473684210526" transform="rotate(45, 66.66666666666667, 184.6153846153846)"></rect><rect width="30.76923076923077" height="8.578947368421051" x="117.94871794871796" y="180.3259109311741" stroke="none" fill="hsla(138, 51%, 71%, 1.00)" rx="4.289473684210526" transform="rotate(45, 133.33333333333334, 184.6153846153846)"></rect><rect width="8.578947368421051" height="30.76923076923077" x="129.04385964912282" y="169.23076923076923" stroke="none" fill="hsla(138, 51%, 71%, 1.00)" rx="4.289473684210526" transform="rotate(45, 133.33333333333334, 184.6153846153846)"></rect><rect width="30.76923076923077" height="8.578947368421051" x="184.6153846153846" y="180.3259109311741" stroke="none" fill="hsl(316, 73%, 52%)" rx="4.289473684210526" transform="rotate(45, 200, 184.6153846153846)"></rect><rect width="8.578947368421051" height="30.76923076923077" x="195.71052631578948" y="169.23076923076923" stroke="none" fill="hsl(316, 73%, 52%)" rx="4.289473684210526" transform="rotate(45, 200, 184.6153846153846)"></rect><rect width="30.76923076923077" height="8.578947368421051" x="251.2820512820513" y="180.3259109311741" stroke="none" fill="hsla(138, 51%, 71%, 1.00)" rx="4.289473684210526" transform="rotate(45, 266.6666666666667, 184.6153846153846)"></rect><rect width="8.578947368421051" height="30.76923076923077" x="262.37719298245617" y="169.23076923076923" stroke="none" fill="hsla(138, 51%, 71%, 1.00)" rx="4.289473684210526" transform="rotate(45, 266.6666666666667, 184.6153846153846)"></rect><rect width="30.76923076923077" height="8.578947368421051" x="317.948717948718" y="180.3259109311741" stroke="none" fill="hsl(316, 73%, 52%)" rx="4.289473684210526" transform="rotate(45, 333.33333333333337, 184.6153846153846)"></rect><rect width="8.578947368421051" height="30.76923076923077" x="329.04385964912285" y="169.23076923076923" stroke="none" fill="hsl(316, 73%, 52%)" rx="4.289473684210526" transform="rotate(45, 333.33333333333337, 184.6153846153846)"></rect><rect width="30.76923076923077" height="8.578947368421051" x="384.6153846153847" y="180.3259109311741" stroke="none" fill="hsla(138, 51%, 71%, 1.00)" rx="4.289473684210526" transform="rotate(45, 400.00000000000006, 184.6153846153846)"></rect><rect width="8.578947368421051" height="30.76923076923077" x="395.71052631578954" y="169.23076923076923" stroke="none" fill="hsla(138, 51%, 71%, 1.00)" rx="4.289473684210526" transform="rotate(45, 400.00000000000006, 184.6153846153846)"></rect><rect width="30.76923076923077" height="8.578947368421051" x="451.2820512820514" y="180.3259109311741" stroke="none" fill="hsl(316, 73%, 52%)" rx="4.289473684210526" transform="rotate(45, 466.66666666666674, 184.6153846153846)"></rect><rect width="8.578947368421051" height="30.76923076923077" x="462.3771929824562" y="169.23076923076923" stroke="none" fill="hsl(316, 73%, 52%)" rx="4.289473684210526" transform="rotate(45, 466.66666666666674, 184.6153846153846)"></rect><rect width="30.76923076923077" height="8.578947368421051" x="517.948717948718" y="180.3259109311741" stroke="none" fill="hsla(138, 51%, 71%, 1.00)" rx="4.289473684210526" transform="rotate(45, 533.3333333333334, 184.6153846153846)"></rect><rect width="8.578947368421051" height="30.76923076923077" x="529.0438596491229" y="169.23076923076923" stroke="none" fill="hsla(138, 51%, 71%, 1.00)" rx="4.289473684210526" transform="rotate(45, 533.3333333333334, 184.6153846153846)"></rect><rect width="30.76923076923077" height="8.578947368421051" x="584.6153846153846" y="180.3259109311741" stroke="none" fill="hsl(316, 73%, 52%)" rx="4.289473684210526" transform="rotate(45, 600, 184.6153846153846)"></rect><rect width="8.578947368421051" height="30.76923076923077" x="595.7105263157895" y="169.23076923076923" stroke="none" fill="hsl(316, 73%, 52%)" rx="4.289473684210526" transform="rotate(45, 600, 184.6153846153846)"></rect><rect width="30.76923076923077" height="8.578947368421051" x="651.2820512820513" y="180.3259109311741" stroke="none" fill="hsla(138, 51%, 71%, 1.00)" rx="4.289473684210526" transform="rotate(45, 666.6666666666666, 184.6153846153846)"></rect><rect width="8.578947368421051" height="30.76923076923077" x="662.3771929824561" y="169.23076923076923" stroke="none" fill="hsla(138, 51%, 71%, 1.00)" rx="4.289473684210526" transform="rotate(45, 666.6666666666666, 184.6153846153846)"></rect><rect width="30.76923076923077" height="8.578947368421051" x="717.9487179487179" y="180.3259109311741" stroke="none" fill="hsl(316, 73%, 52%)" rx="4.289473684210526" transform="rotate(45, 733.3333333333333, 184.6153846153846)"></rect><rect width="8.578947368421051" height="30.76923076923077" x="729.0438596491227" y="169.23076923076923" stroke="none" fill="hsl(316, 73%, 52%)" rx="4.289473684210526" transform="rotate(45, 733.3333333333333, 184.6153846153846)"></rect><rect width="30.76923076923077" height="8.578947368421051" x="784.6153846153845" y="180.3259109311741" stroke="none" fill="hsla(138, 51%, 71%, 1.00)" rx="4.289473684210526" transform="rotate(45, 799.9999999999999, 184.6153846153846)"></rect><rect width="8.578947368421051" height="30.76923076923077" x="795.7105263157894" y="169.23076923076923" stroke="none" fill="hsla(138, 51%, 71%, 1.00)" rx="4.289473684210526" transform="rotate(45, 799.9999999999999, 184.6153846153846)"></rect><rect width="30.76923076923077" height="8.578947368421051" x="-15.384615384615385" y="241.86437246963564" stroke="none" fill="hsl(316, 73%, 52%)" rx="4.289473684210526" transform="rotate(45, 0, 246.15384615384616)"></rect><rect width="8.578947368421051" height="30.76923076923077" x="-4.289473684210526" y="230.76923076923077" stroke="none" fill="hsl(316, 73%, 52%)" rx="4.289473684210526" transform="rotate(45, 0, 246.15384615384616)"></rect><rect width="30.76923076923077" height="8.578947368421051" x="51.282051282051285" y="241.86437246963564" stroke="none" fill="hsla(138, 51%, 71%, 1.00)" rx="4.289473684210526" transform="rotate(45, 66.66666666666667, 246.15384615384616)"></rect><rect width="8.578947368421051" height="30.76923076923077" x="62.377192982456144" y="230.76923076923077" stroke="none" fill="hsla(138, 51%, 71%, 1.00)" rx="4.289473684210526" transform="rotate(45, 66.66666666666667, 246.15384615384616)"></rect><rect width="30.76923076923077" height="8.578947368421051" x="117.94871794871796" y="241.86437246963564" stroke="none" fill="hsl(316, 73%, 52%)" rx="4.289473684210526" transform="rotate(45, 133.33333333333334, 246.15384615384616)"></rect><rect width="8.578947368421051" height="30.76923076923077" x="129.04385964912282" y="230.76923076923077" stroke="none" fill="hsl(316, 73%, 52%)" rx="4.289473684210526" transform="rotate(45, 133.33333333333334, 246.15384615384616)"></rect><rect width="30.76923076923077" height="8.578947368421051" x="184.6153846153846" y="241.86437246963564" stroke="none" fill="hsla(138, 51%, 71%, 1.00)" rx="4.289473684210526" transform="rotate(45, 200, 246.15384615384616)"></rect><rect width="8.578947368421051" height="30.76923076923077" x="195.71052631578948" y="230.76923076923077" stroke="none" fill="hsla(138, 51%, 71%, 1.00)" rx="4.289473684210526" transform="rotate(45, 200, 246.15384615384616)"></rect><rect width="30.76923076923077" height="8.578947368421051" x="251.2820512820513" y="241.86437246963564" stroke="none" fill="hsl(316, 73%, 52%)" rx="4.289473684210526" transform="rotate(45, 266.6666666666667, 246.15384615384616)"></rect><rect width="8.578947368421051" height="30.76923076923077" x="262.37719298245617" y="230.76923076923077" stroke="none" fill="hsl(316, 73%, 52%)" rx="4.289473684210526" transform="rotate(45, 266.6666666666667, 246.15384615384616)"></rect><rect width="30.76923076923077" height="8.578947368421051" x="317.948717948718" y="241.86437246963564" stroke="none" fill="hsla(138, 51%, 71%, 1.00)" rx="4.289473684210526" transform="rotate(45, 333.33333333333337, 246.15384615384616)"></rect><rect width="8.578947368421051" height="30.76923076923077" x="329.04385964912285" y="230.76923076923077" stroke="none" fill="hsla(138, 51%, 71%, 1.00)" rx="4.289473684210526" transform="rotate(45, 333.33333333333337, 246.15384615384616)"></rect><rect width="30.76923076923077" height="8.578947368421051" x="384.6153846153847" y="241.86437246963564" stroke="none" fill="hsl(316, 73%, 52%)" rx="4.289473684210526" transform="rotate(45, 400.00000000000006, 246.15384615384616)"></rect><rect width="8.578947368421051" height="30.76923076923077" x="395.71052631578954" y="230.76923076923077" stroke="none" fill="hsl(316, 73%, 52%)" rx="4.289473684210526" transform="rotate(45, 400.00000000000006, 246.15384615384616)"></rect><rect width="30.76923076923077" height="8.578947368421051" x="451.2820512820514" y="241.86437246963564" stroke="none" fill="hsla(138, 51%, 71%, 1.00)" rx="4.289473684210526" transform="rotate(45, 466.66666666666674, 246.15384615384616)"></rect><rect width="8.578947368421051" height="30.76923076923077" x="462.3771929824562" y="230.76923076923077" stroke="none" fill="hsla(138, 51%, 71%, 1.00)" rx="4.289473684210526" transform="rotate(45, 466.66666666666674, 246.15384615384616)"></rect><rect width="30.76923076923077" height="8.578947368421051" x="517.948717948718" y="241.86437246963564" stroke="none" fill="hsl(316, 73%, 52%)" rx="4.289473684210526" transform="rotate(45, 533.3333333333334, 246.15384615384616)"></rect><rect width="8.578947368421051" height="30.76923076923077" x="529.0438596491229" y="230.76923076923077" stroke="none" fill="hsl(316, 73%, 52%)" rx="4.289473684210526" transform="rotate(45, 533.3333333333334, 246.15384615384616)"></rect><rect width="30.76923076923077" height="8.578947368421051" x="584.6153846153846" y="241.86437246963564" stroke="none" fill="hsla(138, 51%, 71%, 1.00)" rx="4.289473684210526" transform="rotate(45, 600, 246.15384615384616)"></rect><rect width="8.578947368421051" height="30.76923076923077" x="595.7105263157895" y="230.76923076923077" stroke="none" fill="hsla(138, 51%, 71%, 1.00)" rx="4.289473684210526" transform="rotate(45, 600, 246.15384615384616)"></rect><rect width="30.76923076923077" height="8.578947368421051" x="651.2820512820513" y="241.86437246963564" stroke="none" fill="hsl(316, 73%, 52%)" rx="4.289473684210526" transform="rotate(45, 666.6666666666666, 246.15384615384616)"></rect><rect width="8.578947368421051" height="30.76923076923077" x="662.3771929824561" y="230.76923076923077" stroke="none" fill="hsl(316, 73%, 52%)" rx="4.289473684210526" transform="rotate(45, 666.6666666666666, 246.15384615384616)"></rect><rect width="30.76923076923077" height="8.578947368421051" x="717.9487179487179" y="241.86437246963564" stroke="none" fill="hsla(138, 51%, 71%, 1.00)" rx="4.289473684210526" transform="rotate(45, 733.3333333333333, 246.15384615384616)"></rect><rect width="8.578947368421051" height="30.76923076923077" x="729.0438596491227" y="230.76923076923077" stroke="none" fill="hsla(138, 51%, 71%, 1.00)" rx="4.289473684210526" transform="rotate(45, 733.3333333333333, 246.15384615384616)"></rect><rect width="30.76923076923077" height="8.578947368421051" x="784.6153846153845" y="241.86437246963564" stroke="none" fill="hsl(316, 73%, 52%)" rx="4.289473684210526" transform="rotate(45, 799.9999999999999, 246.15384615384616)"></rect><rect width="8.578947368421051" height="30.76923076923077" x="795.7105263157894" y="230.76923076923077" stroke="none" fill="hsl(316, 73%, 52%)" rx="4.289473684210526" transform="rotate(45, 799.9999999999999, 246.15384615384616)"></rect><rect width="30.76923076923077" height="8.578947368421051" x="-15.384615384615385" y="303.40283400809716" stroke="none" fill="hsla(138, 51%, 71%, 1.00)" rx="4.289473684210526" transform="rotate(45, 0, 307.6923076923077)"></rect><rect width="8.578947368421051" height="30.76923076923077" x="-4.289473684210526" y="292.3076923076923" stroke="none" fill="hsla(138, 51%, 71%, 1.00)" rx="4.289473684210526" transform="rotate(45, 0, 307.6923076923077)"></rect><rect width="30.76923076923077" height="8.578947368421051" x="51.282051282051285" y="303.40283400809716" stroke="none" fill="hsl(316, 73%, 52%)" rx="4.289473684210526" transform="rotate(45, 66.66666666666667, 307.6923076923077)"></rect><rect width="8.578947368421051" height="30.76923076923077" x="62.377192982456144" y="292.3076923076923" stroke="none" fill="hsl(316, 73%, 52%)" rx="4.289473684210526" transform="rotate(45, 66.66666666666667, 307.6923076923077)"></rect><rect width="30.76923076923077" height="8.578947368421051" x="117.94871794871796" y="303.40283400809716" stroke="none" fill="hsla(138, 51%, 71%, 1.00)" rx="4.289473684210526" transform="rotate(45, 133.33333333333334, 307.6923076923077)"></rect><rect width="8.578947368421051" height="30.76923076923077" x="129.04385964912282" y="292.3076923076923" stroke="none" fill="hsla(138, 51%, 71%, 1.00)" rx="4.289473684210526" transform="rotate(45, 133.33333333333334, 307.6923076923077)"></rect><rect width="30.76923076923077" height="8.578947368421051" x="184.6153846153846" y="303.40283400809716" stroke="none" fill="hsl(316, 73%, 52%)" rx="4.289473684210526" transform="rotate(45, 200, 307.6923076923077)"></rect><rect width="8.578947368421051" height="30.76923076923077" x="195.71052631578948" y="292.3076923076923" stroke="none" fill="hsl(316, 73%, 52%)" rx="4.289473684210526" transform="rotate(45, 200, 307.6923076923077)"></rect><rect width="30.76923076923077" height="8.578947368421051" x="251.2820512820513" y="303.40283400809716" stroke="none" fill="hsla(138, 51%, 71%, 1.00)" rx="4.289473684210526" transform="rotate(45, 266.6666666666667, 307.6923076923077)"></rect><rect width="8.578947368421051" height="30.76923076923077" x="262.37719298245617" y="292.3076923076923" stroke="none" fill="hsla(138, 51%, 71%, 1.00)" rx="4.289473684210526" transform="rotate(45, 266.6666666666667, 307.6923076923077)"></rect><rect width="30.76923076923077" height="8.578947368421051" x="317.948717948718" y="303.40283400809716" stroke="none" fill="hsl(316, 73%, 52%)" rx="4.289473684210526" transform="rotate(45, 333.33333333333337, 307.6923076923077)"></rect><rect width="8.578947368421051" height="30.76923076923077" x="329.04385964912285" y="292.3076923076923" stroke="none" fill="hsl(316, 73%, 52%)" rx="4.289473684210526" transform="rotate(45, 333.33333333333337, 307.6923076923077)"></rect><rect width="30.76923076923077" height="8.578947368421051" x="384.6153846153847" y="303.40283400809716" stroke="none" fill="hsla(138, 51%, 71%, 1.00)" rx="4.289473684210526" transform="rotate(45, 400.00000000000006, 307.6923076923077)"></rect><rect width="8.578947368421051" height="30.76923076923077" x="395.71052631578954" y="292.3076923076923" stroke="none" fill="hsla(138, 51%, 71%, 1.00)" rx="4.289473684210526" transform="rotate(45, 400.00000000000006, 307.6923076923077)"></rect><rect width="30.76923076923077" height="8.578947368421051" x="451.2820512820514" y="303.40283400809716" stroke="none" fill="hsl(316, 73%, 52%)" rx="4.289473684210526" transform="rotate(45, 466.66666666666674, 307.6923076923077)"></rect><rect width="8.578947368421051" height="30.76923076923077" x="462.3771929824562" y="292.3076923076923" stroke="none" fill="hsl(316, 73%, 52%)" rx="4.289473684210526" transform="rotate(45, 466.66666666666674, 307.6923076923077)"></rect><rect width="30.76923076923077" height="8.578947368421051" x="517.948717948718" y="303.40283400809716" stroke="none" fill="hsla(138, 51%, 71%, 1.00)" rx="4.289473684210526" transform="rotate(45, 533.3333333333334, 307.6923076923077)"></rect><rect width="8.578947368421051" height="30.76923076923077" x="529.0438596491229" y="292.3076923076923" stroke="none" fill="hsla(138, 51%, 71%, 1.00)" rx="4.289473684210526" transform="rotate(45, 533.3333333333334, 307.6923076923077)"></rect><rect width="30.76923076923077" height="8.578947368421051" x="584.6153846153846" y="303.40283400809716" stroke="none" fill="hsl(316, 73%, 52%)" rx="4.289473684210526" transform="rotate(45, 600, 307.6923076923077)"></rect><rect width="8.578947368421051" height="30.76923076923077" x="595.7105263157895" y="292.3076923076923" stroke="none" fill="hsl(316, 73%, 52%)" rx="4.289473684210526" transform="rotate(45, 600, 307.6923076923077)"></rect><rect width="30.76923076923077" height="8.578947368421051" x="651.2820512820513" y="303.40283400809716" stroke="none" fill="hsla(138, 51%, 71%, 1.00)" rx="4.289473684210526" transform="rotate(45, 666.6666666666666, 307.6923076923077)"></rect><rect width="8.578947368421051" height="30.76923076923077" x="662.3771929824561" y="292.3076923076923" stroke="none" fill="hsla(138, 51%, 71%, 1.00)" rx="4.289473684210526" transform="rotate(45, 666.6666666666666, 307.6923076923077)"></rect><rect width="30.76923076923077" height="8.578947368421051" x="717.9487179487179" y="303.40283400809716" stroke="none" fill="hsl(316, 73%, 52%)" rx="4.289473684210526" transform="rotate(45, 733.3333333333333, 307.6923076923077)"></rect><rect width="8.578947368421051" height="30.76923076923077" x="729.0438596491227" y="292.3076923076923" stroke="none" fill="hsl(316, 73%, 52%)" rx="4.289473684210526" transform="rotate(45, 733.3333333333333, 307.6923076923077)"></rect><rect width="30.76923076923077" height="8.578947368421051" x="784.6153846153845" y="303.40283400809716" stroke="none" fill="hsla(138, 51%, 71%, 1.00)" rx="4.289473684210526" transform="rotate(45, 799.9999999999999, 307.6923076923077)"></rect><rect width="8.578947368421051" height="30.76923076923077" x="795.7105263157894" y="292.3076923076923" stroke="none" fill="hsla(138, 51%, 71%, 1.00)" rx="4.289473684210526" transform="rotate(45, 799.9999999999999, 307.6923076923077)"></rect><rect width="30.76923076923077" height="8.578947368421051" x="-15.384615384615385" y="364.9412955465587" stroke="none" fill="hsl(316, 73%, 52%)" rx="4.289473684210526" transform="rotate(45, 0, 369.2307692307692)"></rect><rect width="8.578947368421051" height="30.76923076923077" x="-4.289473684210526" y="353.84615384615387" stroke="none" fill="hsl(316, 73%, 52%)" rx="4.289473684210526" transform="rotate(45, 0, 369.2307692307692)"></rect><rect width="30.76923076923077" height="8.578947368421051" x="51.282051282051285" y="364.9412955465587" stroke="none" fill="hsla(138, 51%, 71%, 1.00)" rx="4.289473684210526" transform="rotate(45, 66.66666666666667, 369.2307692307692)"></rect><rect width="8.578947368421051" height="30.76923076923077" x="62.377192982456144" y="353.84615384615387" stroke="none" fill="hsla(138, 51%, 71%, 1.00)" rx="4.289473684210526" transform="rotate(45, 66.66666666666667, 369.2307692307692)"></rect><rect width="30.76923076923077" height="8.578947368421051" x="117.94871794871796" y="364.9412955465587" stroke="none" fill="hsl(316, 73%, 52%)" rx="4.289473684210526" transform="rotate(45, 133.33333333333334, 369.2307692307692)"></rect><rect width="8.578947368421051" height="30.76923076923077" x="129.04385964912282" y="353.84615384615387" stroke="none" fill="hsl(316, 73%, 52%)" rx="4.289473684210526" transform="rotate(45, 133.33333333333334, 369.2307692307692)"></rect><rect width="30.76923076923077" height="8.578947368421051" x="184.6153846153846" y="364.9412955465587" stroke="none" fill="hsla(138, 51%, 71%, 1.00)" rx="4.289473684210526" transform="rotate(45, 200, 369.2307692307692)"></rect><rect width="8.578947368421051" height="30.76923076923077" x="195.71052631578948" y="353.84615384615387" stroke="none" fill="hsla(138, 51%, 71%, 1.00)" rx="4.289473684210526" transform="rotate(45, 200, 369.2307692307692)"></rect><rect width="30.76923076923077" height="8.578947368421051" x="251.2820512820513" y="364.9412955465587" stroke="none" fill="hsl(316, 73%, 52%)" rx="4.289473684210526" transform="rotate(45, 266.6666666666667, 369.2307692307692)"></rect><rect width="8.578947368421051" height="30.76923076923077" x="262.37719298245617" y="353.84615384615387" stroke="none" fill="hsl(316, 73%, 52%)" rx="4.289473684210526" transform="rotate(45, 266.6666666666667, 369.2307692307692)"></rect><rect width="30.76923076923077" height="8.578947368421051" x="317.948717948718" y="364.9412955465587" stroke="none" fill="hsla(138, 51%, 71%, 1.00)" rx="4.289473684210526" transform="rotate(45, 333.33333333333337, 369.2307692307692)"></rect><rect width="8.578947368421051" height="30.76923076923077" x="329.04385964912285" y="353.84615384615387" stroke="none" fill="hsla(138, 51%, 71%, 1.00)" rx="4.289473684210526" transform="rotate(45, 333.33333333333337, 369.2307692307692)"></rect><rect width="30.76923076923077" height="8.578947368421051" x="384.6153846153847" y="364.9412955465587" stroke="none" fill="hsl(316, 73%, 52%)" rx="4.289473684210526" transform="rotate(45, 400.00000000000006, 369.2307692307692)"></rect><rect width="8.578947368421051" height="30.76923076923077" x="395.71052631578954" y="353.84615384615387" stroke="none" fill="hsl(316, 73%, 52%)" rx="4.289473684210526" transform="rotate(45, 400.00000000000006, 369.2307692307692)"></rect><rect width="30.76923076923077" height="8.578947368421051" x="451.2820512820514" y="364.9412955465587" stroke="none" fill="hsla(138, 51%, 71%, 1.00)" rx="4.289473684210526" transform="rotate(45, 466.66666666666674, 369.2307692307692)"></rect><rect width="8.578947368421051" height="30.76923076923077" x="462.3771929824562" y="353.84615384615387" stroke="none" fill="hsla(138, 51%, 71%, 1.00)" rx="4.289473684210526" transform="rotate(45, 466.66666666666674, 369.2307692307692)"></rect><rect width="30.76923076923077" height="8.578947368421051" x="517.948717948718" y="364.9412955465587" stroke="none" fill="hsl(316, 73%, 52%)" rx="4.289473684210526" transform="rotate(45, 533.3333333333334, 369.2307692307692)"></rect><rect width="8.578947368421051" height="30.76923076923077" x="529.0438596491229" y="353.84615384615387" stroke="none" fill="hsl(316, 73%, 52%)" rx="4.289473684210526" transform="rotate(45, 533.3333333333334, 369.2307692307692)"></rect><rect width="30.76923076923077" height="8.578947368421051" x="584.6153846153846" y="364.9412955465587" stroke="none" fill="hsla(138, 51%, 71%, 1.00)" rx="4.289473684210526" transform="rotate(45, 600, 369.2307692307692)"></rect><rect width="8.578947368421051" height="30.76923076923077" x="595.7105263157895" y="353.84615384615387" stroke="none" fill="hsla(138, 51%, 71%, 1.00)" rx="4.289473684210526" transform="rotate(45, 600, 369.2307692307692)"></rect><rect width="30.76923076923077" height="8.578947368421051" x="651.2820512820513" y="364.9412955465587" stroke="none" fill="hsl(316, 73%, 52%)" rx="4.289473684210526" transform="rotate(45, 666.6666666666666, 369.2307692307692)"></rect><rect width="8.578947368421051" height="30.76923076923077" x="662.3771929824561" y="353.84615384615387" stroke="none" fill="hsl(316, 73%, 52%)" rx="4.289473684210526" transform="rotate(45, 666.6666666666666, 369.2307692307692)"></rect><rect width="30.76923076923077" height="8.578947368421051" x="717.9487179487179" y="364.9412955465587" stroke="none" fill="hsla(138, 51%, 71%, 1.00)" rx="4.289473684210526" transform="rotate(45, 733.3333333333333, 369.2307692307692)"></rect><rect width="8.578947368421051" height="30.76923076923077" x="729.0438596491227" y="353.84615384615387" stroke="none" fill="hsla(138, 51%, 71%, 1.00)" rx="4.289473684210526" transform="rotate(45, 733.3333333333333, 369.2307692307692)"></rect><rect width="30.76923076923077" height="8.578947368421051" x="784.6153846153845" y="364.9412955465587" stroke="none" fill="hsl(316, 73%, 52%)" rx="4.289473684210526" transform="rotate(45, 799.9999999999999, 369.2307692307692)"></rect><rect width="8.578947368421051" height="30.76923076923077" x="795.7105263157894" y="353.84615384615387" stroke="none" fill="hsl(316, 73%, 52%)" rx="4.289473684210526" transform="rotate(45, 799.9999999999999, 369.2307692307692)"></rect><rect width="30.76923076923077" height="8.578947368421051" x="-15.384615384615385" y="426.47975708502025" stroke="none" fill="hsla(138, 51%, 71%, 1.00)" rx="4.289473684210526" transform="rotate(45, 0, 430.7692307692308)"></rect><rect width="8.578947368421051" height="30.76923076923077" x="-4.289473684210526" y="415.3846153846154" stroke="none" fill="hsla(138, 51%, 71%, 1.00)" rx="4.289473684210526" transform="rotate(45, 0, 430.7692307692308)"></rect><rect width="30.76923076923077" height="8.578947368421051" x="51.282051282051285" y="426.47975708502025" stroke="none" fill="hsl(316, 73%, 52%)" rx="4.289473684210526" transform="rotate(45, 66.66666666666667, 430.7692307692308)"></rect><rect width="8.578947368421051" height="30.76923076923077" x="62.377192982456144" y="415.3846153846154" stroke="none" fill="hsl(316, 73%, 52%)" rx="4.289473684210526" transform="rotate(45, 66.66666666666667, 430.7692307692308)"></rect><rect width="30.76923076923077" height="8.578947368421051" x="117.94871794871796" y="426.47975708502025" stroke="none" fill="hsla(138, 51%, 71%, 1.00)" rx="4.289473684210526" transform="rotate(45, 133.33333333333334, 430.7692307692308)"></rect><rect width="8.578947368421051" height="30.76923076923077" x="129.04385964912282" y="415.3846153846154" stroke="none" fill="hsla(138, 51%, 71%, 1.00)" rx="4.289473684210526" transform="rotate(45, 133.33333333333334, 430.7692307692308)"></rect><rect width="30.76923076923077" height="8.578947368421051" x="184.6153846153846" y="426.47975708502025" stroke="none" fill="hsl(316, 73%, 52%)" rx="4.289473684210526" transform="rotate(45, 200, 430.7692307692308)"></rect><rect width="8.578947368421051" height="30.76923076923077" x="195.71052631578948" y="415.3846153846154" stroke="none" fill="hsl(316, 73%, 52%)" rx="4.289473684210526" transform="rotate(45, 200, 430.7692307692308)"></rect><rect width="30.76923076923077" height="8.578947368421051" x="251.2820512820513" y="426.47975708502025" stroke="none" fill="hsla(138, 51%, 71%, 1.00)" rx="4.289473684210526" transform="rotate(45, 266.6666666666667, 430.7692307692308)"></rect><rect width="8.578947368421051" height="30.76923076923077" x="262.37719298245617" y="415.3846153846154" stroke="none" fill="hsla(138, 51%, 71%, 1.00)" rx="4.289473684210526" transform="rotate(45, 266.6666666666667, 430.7692307692308)"></rect><rect width="30.76923076923077" height="8.578947368421051" x="317.948717948718" y="426.47975708502025" stroke="none" fill="hsl(316, 73%, 52%)" rx="4.289473684210526" transform="rotate(45, 333.33333333333337, 430.7692307692308)"></rect><rect width="8.578947368421051" height="30.76923076923077" x="329.04385964912285" y="415.3846153846154" stroke="none" fill="hsl(316, 73%, 52%)" rx="4.289473684210526" transform="rotate(45, 333.33333333333337, 430.7692307692308)"></rect><rect width="30.76923076923077" height="8.578947368421051" x="384.6153846153847" y="426.47975708502025" stroke="none" fill="hsla(138, 51%, 71%, 1.00)" rx="4.289473684210526" transform="rotate(45, 400.00000000000006, 430.7692307692308)"></rect><rect width="8.578947368421051" height="30.76923076923077" x="395.71052631578954" y="415.3846153846154" stroke="none" fill="hsla(138, 51%, 71%, 1.00)" rx="4.289473684210526" transform="rotate(45, 400.00000000000006, 430.7692307692308)"></rect><rect width="30.76923076923077" height="8.578947368421051" x="451.2820512820514" y="426.47975708502025" stroke="none" fill="hsl(316, 73%, 52%)" rx="4.289473684210526" transform="rotate(45, 466.66666666666674, 430.7692307692308)"></rect><rect width="8.578947368421051" height="30.76923076923077" x="462.3771929824562" y="415.3846153846154" stroke="none" fill="hsl(316, 73%, 52%)" rx="4.289473684210526" transform="rotate(45, 466.66666666666674, 430.7692307692308)"></rect><rect width="30.76923076923077" height="8.578947368421051" x="517.948717948718" y="426.47975708502025" stroke="none" fill="hsla(138, 51%, 71%, 1.00)" rx="4.289473684210526" transform="rotate(45, 533.3333333333334, 430.7692307692308)"></rect><rect width="8.578947368421051" height="30.76923076923077" x="529.0438596491229" y="415.3846153846154" stroke="none" fill="hsla(138, 51%, 71%, 1.00)" rx="4.289473684210526" transform="rotate(45, 533.3333333333334, 430.7692307692308)"></rect><rect width="30.76923076923077" height="8.578947368421051" x="584.6153846153846" y="426.47975708502025" stroke="none" fill="hsl(316, 73%, 52%)" rx="4.289473684210526" transform="rotate(45, 600, 430.7692307692308)"></rect><rect width="8.578947368421051" height="30.76923076923077" x="595.7105263157895" y="415.3846153846154" stroke="none" fill="hsl(316, 73%, 52%)" rx="4.289473684210526" transform="rotate(45, 600, 430.7692307692308)"></rect><rect width="30.76923076923077" height="8.578947368421051" x="651.2820512820513" y="426.47975708502025" stroke="none" fill="hsla(138, 51%, 71%, 1.00)" rx="4.289473684210526" transform="rotate(45, 666.6666666666666, 430.7692307692308)"></rect><rect width="8.578947368421051" height="30.76923076923077" x="662.3771929824561" y="415.3846153846154" stroke="none" fill="hsla(138, 51%, 71%, 1.00)" rx="4.289473684210526" transform="rotate(45, 666.6666666666666, 430.7692307692308)"></rect><rect width="30.76923076923077" height="8.578947368421051" x="717.9487179487179" y="426.47975708502025" stroke="none" fill="hsl(316, 73%, 52%)" rx="4.289473684210526" transform="rotate(45, 733.3333333333333, 430.7692307692308)"></rect><rect width="8.578947368421051" height="30.76923076923077" x="729.0438596491227" y="415.3846153846154" stroke="none" fill="hsl(316, 73%, 52%)" rx="4.289473684210526" transform="rotate(45, 733.3333333333333, 430.7692307692308)"></rect><rect width="30.76923076923077" height="8.578947368421051" x="784.6153846153845" y="426.47975708502025" stroke="none" fill="hsla(138, 51%, 71%, 1.00)" rx="4.289473684210526" transform="rotate(45, 799.9999999999999, 430.7692307692308)"></rect><rect width="8.578947368421051" height="30.76923076923077" x="795.7105263157894" y="415.3846153846154" stroke="none" fill="hsla(138, 51%, 71%, 1.00)" rx="4.289473684210526" transform="rotate(45, 799.9999999999999, 430.7692307692308)"></rect><rect width="30.76923076923077" height="8.578947368421051" x="-15.384615384615385" y="488.0182186234818" stroke="none" fill="hsl(316, 73%, 52%)" rx="4.289473684210526" transform="rotate(45, 0, 492.3076923076923)"></rect><rect width="8.578947368421051" height="30.76923076923077" x="-4.289473684210526" y="476.92307692307696" stroke="none" fill="hsl(316, 73%, 52%)" rx="4.289473684210526" transform="rotate(45, 0, 492.3076923076923)"></rect><rect width="30.76923076923077" height="8.578947368421051" x="51.282051282051285" y="488.0182186234818" stroke="none" fill="hsla(138, 51%, 71%, 1.00)" rx="4.289473684210526" transform="rotate(45, 66.66666666666667, 492.3076923076923)"></rect><rect width="8.578947368421051" height="30.76923076923077" x="62.377192982456144" y="476.92307692307696" stroke="none" fill="hsla(138, 51%, 71%, 1.00)" rx="4.289473684210526" transform="rotate(45, 66.66666666666667, 492.3076923076923)"></rect><rect width="30.76923076923077" height="8.578947368421051" x="117.94871794871796" y="488.0182186234818" stroke="none" fill="hsl(316, 73%, 52%)" rx="4.289473684210526" transform="rotate(45, 133.33333333333334, 492.3076923076923)"></rect><rect width="8.578947368421051" height="30.76923076923077" x="129.04385964912282" y="476.92307692307696" stroke="none" fill="hsl(316, 73%, 52%)" rx="4.289473684210526" transform="rotate(45, 133.33333333333334, 492.3076923076923)"></rect><rect width="30.76923076923077" height="8.578947368421051" x="184.6153846153846" y="488.0182186234818" stroke="none" fill="hsla(138, 51%, 71%, 1.00)" rx="4.289473684210526" transform="rotate(45, 200, 492.3076923076923)"></rect><rect width="8.578947368421051" height="30.76923076923077" x="195.71052631578948" y="476.92307692307696" stroke="none" fill="hsla(138, 51%, 71%, 1.00)" rx="4.289473684210526" transform="rotate(45, 200, 492.3076923076923)"></rect><rect width="30.76923076923077" height="8.578947368421051" x="251.2820512820513" y="488.0182186234818" stroke="none" fill="hsl(316, 73%, 52%)" rx="4.289473684210526" transform="rotate(45, 266.6666666666667, 492.3076923076923)"></rect><rect width="8.578947368421051" height="30.76923076923077" x="262.37719298245617" y="476.92307692307696" stroke="none" fill="hsl(316, 73%, 52%)" rx="4.289473684210526" transform="rotate(45, 266.6666666666667, 492.3076923076923)"></rect><rect width="30.76923076923077" height="8.578947368421051" x="317.948717948718" y="488.0182186234818" stroke="none" fill="hsla(138, 51%, 71%, 1.00)" rx="4.289473684210526" transform="rotate(45, 333.33333333333337, 492.3076923076923)"></rect><rect width="8.578947368421051" height="30.76923076923077" x="329.04385964912285" y="476.92307692307696" stroke="none" fill="hsla(138, 51%, 71%, 1.00)" rx="4.289473684210526" transform="rotate(45, 333.33333333333337, 492.3076923076923)"></rect><rect width="30.76923076923077" height="8.578947368421051" x="384.6153846153847" y="488.0182186234818" stroke="none" fill="hsl(316, 73%, 52%)" rx="4.289473684210526" transform="rotate(45, 400.00000000000006, 492.3076923076923)"></rect><rect width="8.578947368421051" height="30.76923076923077" x="395.71052631578954" y="476.92307692307696" stroke="none" fill="hsl(316, 73%, 52%)" rx="4.289473684210526" transform="rotate(45, 400.00000000000006, 492.3076923076923)"></rect><rect width="30.76923076923077" height="8.578947368421051" x="451.2820512820514" y="488.0182186234818" stroke="none" fill="hsla(138, 51%, 71%, 1.00)" rx="4.289473684210526" transform="rotate(45, 466.66666666666674, 492.3076923076923)"></rect><rect width="8.578947368421051" height="30.76923076923077" x="462.3771929824562" y="476.92307692307696" stroke="none" fill="hsla(138, 51%, 71%, 1.00)" rx="4.289473684210526" transform="rotate(45, 466.66666666666674, 492.3076923076923)"></rect><rect width="30.76923076923077" height="8.578947368421051" x="517.948717948718" y="488.0182186234818" stroke="none" fill="hsl(316, 73%, 52%)" rx="4.289473684210526" transform="rotate(45, 533.3333333333334, 492.3076923076923)"></rect><rect width="8.578947368421051" height="30.76923076923077" x="529.0438596491229" y="476.92307692307696" stroke="none" fill="hsl(316, 73%, 52%)" rx="4.289473684210526" transform="rotate(45, 533.3333333333334, 492.3076923076923)"></rect><rect width="30.76923076923077" height="8.578947368421051" x="584.6153846153846" y="488.0182186234818" stroke="none" fill="hsla(138, 51%, 71%, 1.00)" rx="4.289473684210526" transform="rotate(45, 600, 492.3076923076923)"></rect><rect width="8.578947368421051" height="30.76923076923077" x="595.7105263157895" y="476.92307692307696" stroke="none" fill="hsla(138, 51%, 71%, 1.00)" rx="4.289473684210526" transform="rotate(45, 600, 492.3076923076923)"></rect><rect width="30.76923076923077" height="8.578947368421051" x="651.2820512820513" y="488.0182186234818" stroke="none" fill="hsl(316, 73%, 52%)" rx="4.289473684210526" transform="rotate(45, 666.6666666666666, 492.3076923076923)"></rect><rect width="8.578947368421051" height="30.76923076923077" x="662.3771929824561" y="476.92307692307696" stroke="none" fill="hsl(316, 73%, 52%)" rx="4.289473684210526" transform="rotate(45, 666.6666666666666, 492.3076923076923)"></rect><rect width="30.76923076923077" height="8.578947368421051" x="717.9487179487179" y="488.0182186234818" stroke="none" fill="hsla(138, 51%, 71%, 1.00)" rx="4.289473684210526" transform="rotate(45, 733.3333333333333, 492.3076923076923)"></rect><rect width="8.578947368421051" height="30.76923076923077" x="729.0438596491227" y="476.92307692307696" stroke="none" fill="hsla(138, 51%, 71%, 1.00)" rx="4.289473684210526" transform="rotate(45, 733.3333333333333, 492.3076923076923)"></rect><rect width="30.76923076923077" height="8.578947368421051" x="784.6153846153845" y="488.0182186234818" stroke="none" fill="hsl(316, 73%, 52%)" rx="4.289473684210526" transform="rotate(45, 799.9999999999999, 492.3076923076923)"></rect><rect width="8.578947368421051" height="30.76923076923077" x="795.7105263157894" y="476.92307692307696" stroke="none" fill="hsl(316, 73%, 52%)" rx="4.289473684210526" transform="rotate(45, 799.9999999999999, 492.3076923076923)"></rect><rect width="30.76923076923077" height="8.578947368421051" x="-15.384615384615385" y="549.5566801619433" stroke="none" fill="hsla(138, 51%, 71%, 1.00)" rx="4.289473684210526" transform="rotate(45, 0, 553.8461538461538)"></rect><rect width="8.578947368421051" height="30.76923076923077" x="-4.289473684210526" y="538.4615384615385" stroke="none" fill="hsla(138, 51%, 71%, 1.00)" rx="4.289473684210526" transform="rotate(45, 0, 553.8461538461538)"></rect><rect width="30.76923076923077" height="8.578947368421051" x="51.282051282051285" y="549.5566801619433" stroke="none" fill="hsl(316, 73%, 52%)" rx="4.289473684210526" transform="rotate(45, 66.66666666666667, 553.8461538461538)"></rect><rect width="8.578947368421051" height="30.76923076923077" x="62.377192982456144" y="538.4615384615385" stroke="none" fill="hsl(316, 73%, 52%)" rx="4.289473684210526" transform="rotate(45, 66.66666666666667, 553.8461538461538)"></rect><rect width="30.76923076923077" height="8.578947368421051" x="117.94871794871796" y="549.5566801619433" stroke="none" fill="hsla(138, 51%, 71%, 1.00)" rx="4.289473684210526" transform="rotate(45, 133.33333333333334, 553.8461538461538)"></rect><rect width="8.578947368421051" height="30.76923076923077" x="129.04385964912282" y="538.4615384615385" stroke="none" fill="hsla(138, 51%, 71%, 1.00)" rx="4.289473684210526" transform="rotate(45, 133.33333333333334, 553.8461538461538)"></rect><rect width="30.76923076923077" height="8.578947368421051" x="184.6153846153846" y="549.5566801619433" stroke="none" fill="hsl(316, 73%, 52%)" rx="4.289473684210526" transform="rotate(45, 200, 553.8461538461538)"></rect><rect width="8.578947368421051" height="30.76923076923077" x="195.71052631578948" y="538.4615384615385" stroke="none" fill="hsl(316, 73%, 52%)" rx="4.289473684210526" transform="rotate(45, 200, 553.8461538461538)"></rect><rect width="30.76923076923077" height="8.578947368421051" x="251.2820512820513" y="549.5566801619433" stroke="none" fill="hsla(138, 51%, 71%, 1.00)" rx="4.289473684210526" transform="rotate(45, 266.6666666666667, 553.8461538461538)"></rect><rect width="8.578947368421051" height="30.76923076923077" x="262.37719298245617" y="538.4615384615385" stroke="none" fill="hsla(138, 51%, 71%, 1.00)" rx="4.289473684210526" transform="rotate(45, 266.6666666666667, 553.8461538461538)"></rect><rect width="30.76923076923077" height="8.578947368421051" x="317.948717948718" y="549.5566801619433" stroke="none" fill="hsl(316, 73%, 52%)" rx="4.289473684210526" transform="rotate(45, 333.33333333333337, 553.8461538461538)"></rect><rect width="8.578947368421051" height="30.76923076923077" x="329.04385964912285" y="538.4615384615385" stroke="none" fill="hsl(316, 73%, 52%)" rx="4.289473684210526" transform="rotate(45, 333.33333333333337, 553.8461538461538)"></rect><rect width="30.76923076923077" height="8.578947368421051" x="384.6153846153847" y="549.5566801619433" stroke="none" fill="hsla(138, 51%, 71%, 1.00)" rx="4.289473684210526" transform="rotate(45, 400.00000000000006, 553.8461538461538)"></rect><rect width="8.578947368421051" height="30.76923076923077" x="395.71052631578954" y="538.4615384615385" stroke="none" fill="hsla(138, 51%, 71%, 1.00)" rx="4.289473684210526" transform="rotate(45, 400.00000000000006, 553.8461538461538)"></rect><rect width="30.76923076923077" height="8.578947368421051" x="451.2820512820514" y="549.5566801619433" stroke="none" fill="hsl(316, 73%, 52%)" rx="4.289473684210526" transform="rotate(45, 466.66666666666674, 553.8461538461538)"></rect><rect width="8.578947368421051" height="30.76923076923077" x="462.3771929824562" y="538.4615384615385" stroke="none" fill="hsl(316, 73%, 52%)" rx="4.289473684210526" transform="rotate(45, 466.66666666666674, 553.8461538461538)"></rect><rect width="30.76923076923077" height="8.578947368421051" x="517.948717948718" y="549.5566801619433" stroke="none" fill="hsla(138, 51%, 71%, 1.00)" rx="4.289473684210526" transform="rotate(45, 533.3333333333334, 553.8461538461538)"></rect><rect width="8.578947368421051" height="30.76923076923077" x="529.0438596491229" y="538.4615384615385" stroke="none" fill="hsla(138, 51%, 71%, 1.00)" rx="4.289473684210526" transform="rotate(45, 533.3333333333334, 553.8461538461538)"></rect><rect width="30.76923076923077" height="8.578947368421051" x="584.6153846153846" y="549.5566801619433" stroke="none" fill="hsl(316, 73%, 52%)" rx="4.289473684210526" transform="rotate(45, 600, 553.8461538461538)"></rect><rect width="8.578947368421051" height="30.76923076923077" x="595.7105263157895" y="538.4615384615385" stroke="none" fill="hsl(316, 73%, 52%)" rx="4.289473684210526" transform="rotate(45, 600, 553.8461538461538)"></rect><rect width="30.76923076923077" height="8.578947368421051" x="651.2820512820513" y="549.5566801619433" stroke="none" fill="hsla(138, 51%, 71%, 1.00)" rx="4.289473684210526" transform="rotate(45, 666.6666666666666, 553.8461538461538)"></rect><rect width="8.578947368421051" height="30.76923076923077" x="662.3771929824561" y="538.4615384615385" stroke="none" fill="hsla(138, 51%, 71%, 1.00)" rx="4.289473684210526" transform="rotate(45, 666.6666666666666, 553.8461538461538)"></rect><rect width="30.76923076923077" height="8.578947368421051" x="717.9487179487179" y="549.5566801619433" stroke="none" fill="hsl(316, 73%, 52%)" rx="4.289473684210526" transform="rotate(45, 733.3333333333333, 553.8461538461538)"></rect><rect width="8.578947368421051" height="30.76923076923077" x="729.0438596491227" y="538.4615384615385" stroke="none" fill="hsl(316, 73%, 52%)" rx="4.289473684210526" transform="rotate(45, 733.3333333333333, 553.8461538461538)"></rect><rect width="30.76923076923077" height="8.578947368421051" x="784.6153846153845" y="549.5566801619433" stroke="none" fill="hsla(138, 51%, 71%, 1.00)" rx="4.289473684210526" transform="rotate(45, 799.9999999999999, 553.8461538461538)"></rect><rect width="8.578947368421051" height="30.76923076923077" x="795.7105263157894" y="538.4615384615385" stroke="none" fill="hsla(138, 51%, 71%, 1.00)" rx="4.289473684210526" transform="rotate(45, 799.9999999999999, 553.8461538461538)"></rect><rect width="30.76923076923077" height="8.578947368421051" x="-15.384615384615385" y="611.0951417004048" stroke="none" fill="hsl(316, 73%, 52%)" rx="4.289473684210526" transform="rotate(45, 0, 615.3846153846154)"></rect><rect width="8.578947368421051" height="30.76923076923077" x="-4.289473684210526" y="600" stroke="none" fill="hsl(316, 73%, 52%)" rx="4.289473684210526" transform="rotate(45, 0, 615.3846153846154)"></rect><rect width="30.76923076923077" height="8.578947368421051" x="51.282051282051285" y="611.0951417004048" stroke="none" fill="hsla(138, 51%, 71%, 1.00)" rx="4.289473684210526" transform="rotate(45, 66.66666666666667, 615.3846153846154)"></rect><rect width="8.578947368421051" height="30.76923076923077" x="62.377192982456144" y="600" stroke="none" fill="hsla(138, 51%, 71%, 1.00)" rx="4.289473684210526" transform="rotate(45, 66.66666666666667, 615.3846153846154)"></rect><rect width="30.76923076923077" height="8.578947368421051" x="117.94871794871796" y="611.0951417004048" stroke="none" fill="hsl(316, 73%, 52%)" rx="4.289473684210526" transform="rotate(45, 133.33333333333334, 615.3846153846154)"></rect><rect width="8.578947368421051" height="30.76923076923077" x="129.04385964912282" y="600" stroke="none" fill="hsl(316, 73%, 52%)" rx="4.289473684210526" transform="rotate(45, 133.33333333333334, 615.3846153846154)"></rect><rect width="30.76923076923077" height="8.578947368421051" x="184.6153846153846" y="611.0951417004048" stroke="none" fill="hsla(138, 51%, 71%, 1.00)" rx="4.289473684210526" transform="rotate(45, 200, 615.3846153846154)"></rect><rect width="8.578947368421051" height="30.76923076923077" x="195.71052631578948" y="600" stroke="none" fill="hsla(138, 51%, 71%, 1.00)" rx="4.289473684210526" transform="rotate(45, 200, 615.3846153846154)"></rect><rect width="30.76923076923077" height="8.578947368421051" x="251.2820512820513" y="611.0951417004048" stroke="none" fill="hsl(316, 73%, 52%)" rx="4.289473684210526" transform="rotate(45, 266.6666666666667, 615.3846153846154)"></rect><rect width="8.578947368421051" height="30.76923076923077" x="262.37719298245617" y="600" stroke="none" fill="hsl(316, 73%, 52%)" rx="4.289473684210526" transform="rotate(45, 266.6666666666667, 615.3846153846154)"></rect><rect width="30.76923076923077" height="8.578947368421051" x="317.948717948718" y="611.0951417004048" stroke="none" fill="hsla(138, 51%, 71%, 1.00)" rx="4.289473684210526" transform="rotate(45, 333.33333333333337, 615.3846153846154)"></rect><rect width="8.578947368421051" height="30.76923076923077" x="329.04385964912285" y="600" stroke="none" fill="hsla(138, 51%, 71%, 1.00)" rx="4.289473684210526" transform="rotate(45, 333.33333333333337, 615.3846153846154)"></rect><rect width="30.76923076923077" height="8.578947368421051" x="384.6153846153847" y="611.0951417004048" stroke="none" fill="hsl(316, 73%, 52%)" rx="4.289473684210526" transform="rotate(45, 400.00000000000006, 615.3846153846154)"></rect><rect width="8.578947368421051" height="30.76923076923077" x="395.71052631578954" y="600" stroke="none" fill="hsl(316, 73%, 52%)" rx="4.289473684210526" transform="rotate(45, 400.00000000000006, 615.3846153846154)"></rect><rect width="30.76923076923077" height="8.578947368421051" x="451.2820512820514" y="611.0951417004048" stroke="none" fill="hsla(138, 51%, 71%, 1.00)" rx="4.289473684210526" transform="rotate(45, 466.66666666666674, 615.3846153846154)"></rect><rect width="8.578947368421051" height="30.76923076923077" x="462.3771929824562" y="600" stroke="none" fill="hsla(138, 51%, 71%, 1.00)" rx="4.289473684210526" transform="rotate(45, 466.66666666666674, 615.3846153846154)"></rect><rect width="30.76923076923077" height="8.578947368421051" x="517.948717948718" y="611.0951417004048" stroke="none" fill="hsl(316, 73%, 52%)" rx="4.289473684210526" transform="rotate(45, 533.3333333333334, 615.3846153846154)"></rect><rect width="8.578947368421051" height="30.76923076923077" x="529.0438596491229" y="600" stroke="none" fill="hsl(316, 73%, 52%)" rx="4.289473684210526" transform="rotate(45, 533.3333333333334, 615.3846153846154)"></rect><rect width="30.76923076923077" height="8.578947368421051" x="584.6153846153846" y="611.0951417004048" stroke="none" fill="hsla(138, 51%, 71%, 1.00)" rx="4.289473684210526" transform="rotate(45, 600, 615.3846153846154)"></rect><rect width="8.578947368421051" height="30.76923076923077" x="595.7105263157895" y="600" stroke="none" fill="hsla(138, 51%, 71%, 1.00)" rx="4.289473684210526" transform="rotate(45, 600, 615.3846153846154)"></rect><rect width="30.76923076923077" height="8.578947368421051" x="651.2820512820513" y="611.0951417004048" stroke="none" fill="hsl(316, 73%, 52%)" rx="4.289473684210526" transform="rotate(45, 666.6666666666666, 615.3846153846154)"></rect><rect width="8.578947368421051" height="30.76923076923077" x="662.3771929824561" y="600" stroke="none" fill="hsl(316, 73%, 52%)" rx="4.289473684210526" transform="rotate(45, 666.6666666666666, 615.3846153846154)"></rect><rect width="30.76923076923077" height="8.578947368421051" x="717.9487179487179" y="611.0951417004048" stroke="none" fill="hsla(138, 51%, 71%, 1.00)" rx="4.289473684210526" transform="rotate(45, 733.3333333333333, 615.3846153846154)"></rect><rect width="8.578947368421051" height="30.76923076923077" x="729.0438596491227" y="600" stroke="none" fill="hsla(138, 51%, 71%, 1.00)" rx="4.289473684210526" transform="rotate(45, 733.3333333333333, 615.3846153846154)"></rect><rect width="30.76923076923077" height="8.578947368421051" x="784.6153846153845" y="611.0951417004048" stroke="none" fill="hsl(316, 73%, 52%)" rx="4.289473684210526" transform="rotate(45, 799.9999999999999, 615.3846153846154)"></rect><rect width="8.578947368421051" height="30.76923076923077" x="795.7105263157894" y="600" stroke="none" fill="hsl(316, 73%, 52%)" rx="4.289473684210526" transform="rotate(45, 799.9999999999999, 615.3846153846154)"></rect><rect width="30.76923076923077" height="8.578947368421051" x="-15.384615384615385" y="672.6336032388664" stroke="none" fill="hsla(138, 51%, 71%, 1.00)" rx="4.289473684210526" transform="rotate(45, 0, 676.9230769230769)"></rect><rect width="8.578947368421051" height="30.76923076923077" x="-4.289473684210526" y="661.5384615384615" stroke="none" fill="hsla(138, 51%, 71%, 1.00)" rx="4.289473684210526" transform="rotate(45, 0, 676.9230769230769)"></rect><rect width="30.76923076923077" height="8.578947368421051" x="51.282051282051285" y="672.6336032388664" stroke="none" fill="hsl(316, 73%, 52%)" rx="4.289473684210526" transform="rotate(45, 66.66666666666667, 676.9230769230769)"></rect><rect width="8.578947368421051" height="30.76923076923077" x="62.377192982456144" y="661.5384615384615" stroke="none" fill="hsl(316, 73%, 52%)" rx="4.289473684210526" transform="rotate(45, 66.66666666666667, 676.9230769230769)"></rect><rect width="30.76923076923077" height="8.578947368421051" x="117.94871794871796" y="672.6336032388664" stroke="none" fill="hsla(138, 51%, 71%, 1.00)" rx="4.289473684210526" transform="rotate(45, 133.33333333333334, 676.9230769230769)"></rect><rect width="8.578947368421051" height="30.76923076923077" x="129.04385964912282" y="661.5384615384615" stroke="none" fill="hsla(138, 51%, 71%, 1.00)" rx="4.289473684210526" transform="rotate(45, 133.33333333333334, 676.9230769230769)"></rect><rect width="30.76923076923077" height="8.578947368421051" x="184.6153846153846" y="672.6336032388664" stroke="none" fill="hsl(316, 73%, 52%)" rx="4.289473684210526" transform="rotate(45, 200, 676.9230769230769)"></rect><rect width="8.578947368421051" height="30.76923076923077" x="195.71052631578948" y="661.5384615384615" stroke="none" fill="hsl(316, 73%, 52%)" rx="4.289473684210526" transform="rotate(45, 200, 676.9230769230769)"></rect><rect width="30.76923076923077" height="8.578947368421051" x="251.2820512820513" y="672.6336032388664" stroke="none" fill="hsla(138, 51%, 71%, 1.00)" rx="4.289473684210526" transform="rotate(45, 266.6666666666667, 676.9230769230769)"></rect><rect width="8.578947368421051" height="30.76923076923077" x="262.37719298245617" y="661.5384615384615" stroke="none" fill="hsla(138, 51%, 71%, 1.00)" rx="4.289473684210526" transform="rotate(45, 266.6666666666667, 676.9230769230769)"></rect><rect width="30.76923076923077" height="8.578947368421051" x="317.948717948718" y="672.6336032388664" stroke="none" fill="hsl(316, 73%, 52%)" rx="4.289473684210526" transform="rotate(45, 333.33333333333337, 676.9230769230769)"></rect><rect width="8.578947368421051" height="30.76923076923077" x="329.04385964912285" y="661.5384615384615" stroke="none" fill="hsl(316, 73%, 52%)" rx="4.289473684210526" transform="rotate(45, 333.33333333333337, 676.9230769230769)"></rect><rect width="30.76923076923077" height="8.578947368421051" x="384.6153846153847" y="672.6336032388664" stroke="none" fill="hsla(138, 51%, 71%, 1.00)" rx="4.289473684210526" transform="rotate(45, 400.00000000000006, 676.9230769230769)"></rect><rect width="8.578947368421051" height="30.76923076923077" x="395.71052631578954" y="661.5384615384615" stroke="none" fill="hsla(138, 51%, 71%, 1.00)" rx="4.289473684210526" transform="rotate(45, 400.00000000000006, 676.9230769230769)"></rect><rect width="30.76923076923077" height="8.578947368421051" x="451.2820512820514" y="672.6336032388664" stroke="none" fill="hsl(316, 73%, 52%)" rx="4.289473684210526" transform="rotate(45, 466.66666666666674, 676.9230769230769)"></rect><rect width="8.578947368421051" height="30.76923076923077" x="462.3771929824562" y="661.5384615384615" stroke="none" fill="hsl(316, 73%, 52%)" rx="4.289473684210526" transform="rotate(45, 466.66666666666674, 676.9230769230769)"></rect><rect width="30.76923076923077" height="8.578947368421051" x="517.948717948718" y="672.6336032388664" stroke="none" fill="hsla(138, 51%, 71%, 1.00)" rx="4.289473684210526" transform="rotate(45, 533.3333333333334, 676.9230769230769)"></rect><rect width="8.578947368421051" height="30.76923076923077" x="529.0438596491229" y="661.5384615384615" stroke="none" fill="hsla(138, 51%, 71%, 1.00)" rx="4.289473684210526" transform="rotate(45, 533.3333333333334, 676.9230769230769)"></rect><rect width="30.76923076923077" height="8.578947368421051" x="584.6153846153846" y="672.6336032388664" stroke="none" fill="hsl(316, 73%, 52%)" rx="4.289473684210526" transform="rotate(45, 600, 676.9230769230769)"></rect><rect width="8.578947368421051" height="30.76923076923077" x="595.7105263157895" y="661.5384615384615" stroke="none" fill="hsl(316, 73%, 52%)" rx="4.289473684210526" transform="rotate(45, 600, 676.9230769230769)"></rect><rect width="30.76923076923077" height="8.578947368421051" x="651.2820512820513" y="672.6336032388664" stroke="none" fill="hsla(138, 51%, 71%, 1.00)" rx="4.289473684210526" transform="rotate(45, 666.6666666666666, 676.9230769230769)"></rect><rect width="8.578947368421051" height="30.76923076923077" x="662.3771929824561" y="661.5384615384615" stroke="none" fill="hsla(138, 51%, 71%, 1.00)" rx="4.289473684210526" transform="rotate(45, 666.6666666666666, 676.9230769230769)"></rect><rect width="30.76923076923077" height="8.578947368421051" x="717.9487179487179" y="672.6336032388664" stroke="none" fill="hsl(316, 73%, 52%)" rx="4.289473684210526" transform="rotate(45, 733.3333333333333, 676.9230769230769)"></rect><rect width="8.578947368421051" height="30.76923076923077" x="729.0438596491227" y="661.5384615384615" stroke="none" fill="hsl(316, 73%, 52%)" rx="4.289473684210526" transform="rotate(45, 733.3333333333333, 676.9230769230769)"></rect><rect width="30.76923076923077" height="8.578947368421051" x="784.6153846153845" y="672.6336032388664" stroke="none" fill="hsla(138, 51%, 71%, 1.00)" rx="4.289473684210526" transform="rotate(45, 799.9999999999999, 676.9230769230769)"></rect><rect width="8.578947368421051" height="30.76923076923077" x="795.7105263157894" y="661.5384615384615" stroke="none" fill="hsla(138, 51%, 71%, 1.00)" rx="4.289473684210526" transform="rotate(45, 799.9999999999999, 676.9230769230769)"></rect><rect width="30.76923076923077" height="8.578947368421051" x="-15.384615384615385" y="734.1720647773279" stroke="none" fill="hsl(316, 73%, 52%)" rx="4.289473684210526" transform="rotate(45, 0, 738.4615384615385)"></rect><rect width="8.578947368421051" height="30.76923076923077" x="-4.289473684210526" y="723.0769230769231" stroke="none" fill="hsl(316, 73%, 52%)" rx="4.289473684210526" transform="rotate(45, 0, 738.4615384615385)"></rect><rect width="30.76923076923077" height="8.578947368421051" x="51.282051282051285" y="734.1720647773279" stroke="none" fill="hsla(138, 51%, 71%, 1.00)" rx="4.289473684210526" transform="rotate(45, 66.66666666666667, 738.4615384615385)"></rect><rect width="8.578947368421051" height="30.76923076923077" x="62.377192982456144" y="723.0769230769231" stroke="none" fill="hsla(138, 51%, 71%, 1.00)" rx="4.289473684210526" transform="rotate(45, 66.66666666666667, 738.4615384615385)"></rect><rect width="30.76923076923077" height="8.578947368421051" x="117.94871794871796" y="734.1720647773279" stroke="none" fill="hsl(316, 73%, 52%)" rx="4.289473684210526" transform="rotate(45, 133.33333333333334, 738.4615384615385)"></rect><rect width="8.578947368421051" height="30.76923076923077" x="129.04385964912282" y="723.0769230769231" stroke="none" fill="hsl(316, 73%, 52%)" rx="4.289473684210526" transform="rotate(45, 133.33333333333334, 738.4615384615385)"></rect><rect width="30.76923076923077" height="8.578947368421051" x="184.6153846153846" y="734.1720647773279" stroke="none" fill="hsla(138, 51%, 71%, 1.00)" rx="4.289473684210526" transform="rotate(45, 200, 738.4615384615385)"></rect><rect width="8.578947368421051" height="30.76923076923077" x="195.71052631578948" y="723.0769230769231" stroke="none" fill="hsla(138, 51%, 71%, 1.00)" rx="4.289473684210526" transform="rotate(45, 200, 738.4615384615385)"></rect><rect width="30.76923076923077" height="8.578947368421051" x="251.2820512820513" y="734.1720647773279" stroke="none" fill="hsl(316, 73%, 52%)" rx="4.289473684210526" transform="rotate(45, 266.6666666666667, 738.4615384615385)"></rect><rect width="8.578947368421051" height="30.76923076923077" x="262.37719298245617" y="723.0769230769231" stroke="none" fill="hsl(316, 73%, 52%)" rx="4.289473684210526" transform="rotate(45, 266.6666666666667, 738.4615384615385)"></rect><rect width="30.76923076923077" height="8.578947368421051" x="317.948717948718" y="734.1720647773279" stroke="none" fill="hsla(138, 51%, 71%, 1.00)" rx="4.289473684210526" transform="rotate(45, 333.33333333333337, 738.4615384615385)"></rect><rect width="8.578947368421051" height="30.76923076923077" x="329.04385964912285" y="723.0769230769231" stroke="none" fill="hsla(138, 51%, 71%, 1.00)" rx="4.289473684210526" transform="rotate(45, 333.33333333333337, 738.4615384615385)"></rect><rect width="30.76923076923077" height="8.578947368421051" x="384.6153846153847" y="734.1720647773279" stroke="none" fill="hsl(316, 73%, 52%)" rx="4.289473684210526" transform="rotate(45, 400.00000000000006, 738.4615384615385)"></rect><rect width="8.578947368421051" height="30.76923076923077" x="395.71052631578954" y="723.0769230769231" stroke="none" fill="hsl(316, 73%, 52%)" rx="4.289473684210526" transform="rotate(45, 400.00000000000006, 738.4615384615385)"></rect><rect width="30.76923076923077" height="8.578947368421051" x="451.2820512820514" y="734.1720647773279" stroke="none" fill="hsla(138, 51%, 71%, 1.00)" rx="4.289473684210526" transform="rotate(45, 466.66666666666674, 738.4615384615385)"></rect><rect width="8.578947368421051" height="30.76923076923077" x="462.3771929824562" y="723.0769230769231" stroke="none" fill="hsla(138, 51%, 71%, 1.00)" rx="4.289473684210526" transform="rotate(45, 466.66666666666674, 738.4615384615385)"></rect><rect width="30.76923076923077" height="8.578947368421051" x="517.948717948718" y="734.1720647773279" stroke="none" fill="hsl(316, 73%, 52%)" rx="4.289473684210526" transform="rotate(45, 533.3333333333334, 738.4615384615385)"></rect><rect width="8.578947368421051" height="30.76923076923077" x="529.0438596491229" y="723.0769230769231" stroke="none" fill="hsl(316, 73%, 52%)" rx="4.289473684210526" transform="rotate(45, 533.3333333333334, 738.4615384615385)"></rect><rect width="30.76923076923077" height="8.578947368421051" x="584.6153846153846" y="734.1720647773279" stroke="none" fill="hsla(138, 51%, 71%, 1.00)" rx="4.289473684210526" transform="rotate(45, 600, 738.4615384615385)"></rect><rect width="8.578947368421051" height="30.76923076923077" x="595.7105263157895" y="723.0769230769231" stroke="none" fill="hsla(138, 51%, 71%, 1.00)" rx="4.289473684210526" transform="rotate(45, 600, 738.4615384615385)"></rect><rect width="30.76923076923077" height="8.578947368421051" x="651.2820512820513" y="734.1720647773279" stroke="none" fill="hsl(316, 73%, 52%)" rx="4.289473684210526" transform="rotate(45, 666.6666666666666, 738.4615384615385)"></rect><rect width="8.578947368421051" height="30.76923076923077" x="662.3771929824561" y="723.0769230769231" stroke="none" fill="hsl(316, 73%, 52%)" rx="4.289473684210526" transform="rotate(45, 666.6666666666666, 738.4615384615385)"></rect><rect width="30.76923076923077" height="8.578947368421051" x="717.9487179487179" y="734.1720647773279" stroke="none" fill="hsla(138, 51%, 71%, 1.00)" rx="4.289473684210526" transform="rotate(45, 733.3333333333333, 738.4615384615385)"></rect><rect width="8.578947368421051" height="30.76923076923077" x="729.0438596491227" y="723.0769230769231" stroke="none" fill="hsla(138, 51%, 71%, 1.00)" rx="4.289473684210526" transform="rotate(45, 733.3333333333333, 738.4615384615385)"></rect><rect width="30.76923076923077" height="8.578947368421051" x="784.6153846153845" y="734.1720647773279" stroke="none" fill="hsl(316, 73%, 52%)" rx="4.289473684210526" transform="rotate(45, 799.9999999999999, 738.4615384615385)"></rect><rect width="8.578947368421051" height="30.76923076923077" x="795.7105263157894" y="723.0769230769231" stroke="none" fill="hsl(316, 73%, 52%)" rx="4.289473684210526" transform="rotate(45, 799.9999999999999, 738.4615384615385)"></rect><rect width="30.76923076923077" height="8.578947368421051" x="-15.384615384615385" y="795.7105263157895" stroke="none" fill="hsla(138, 51%, 71%, 1.00)" rx="4.289473684210526" transform="rotate(45, 0, 800)"></rect><rect width="8.578947368421051" height="30.76923076923077" x="-4.289473684210526" y="784.6153846153846" stroke="none" fill="hsla(138, 51%, 71%, 1.00)" rx="4.289473684210526" transform="rotate(45, 0, 800)"></rect><rect width="30.76923076923077" height="8.578947368421051" x="51.282051282051285" y="795.7105263157895" stroke="none" fill="hsl(316, 73%, 52%)" rx="4.289473684210526" transform="rotate(45, 66.66666666666667, 800)"></rect><rect width="8.578947368421051" height="30.76923076923077" x="62.377192982456144" y="784.6153846153846" stroke="none" fill="hsl(316, 73%, 52%)" rx="4.289473684210526" transform="rotate(45, 66.66666666666667, 800)"></rect><rect width="30.76923076923077" height="8.578947368421051" x="117.94871794871796" y="795.7105263157895" stroke="none" fill="hsla(138, 51%, 71%, 1.00)" rx="4.289473684210526" transform="rotate(45, 133.33333333333334, 800)"></rect><rect width="8.578947368421051" height="30.76923076923077" x="129.04385964912282" y="784.6153846153846" stroke="none" fill="hsla(138, 51%, 71%, 1.00)" rx="4.289473684210526" transform="rotate(45, 133.33333333333334, 800)"></rect><rect width="30.76923076923077" height="8.578947368421051" x="184.6153846153846" y="795.7105263157895" stroke="none" fill="hsl(316, 73%, 52%)" rx="4.289473684210526" transform="rotate(45, 200, 800)"></rect><rect width="8.578947368421051" height="30.76923076923077" x="195.71052631578948" y="784.6153846153846" stroke="none" fill="hsl(316, 73%, 52%)" rx="4.289473684210526" transform="rotate(45, 200, 800)"></rect><rect width="30.76923076923077" height="8.578947368421051" x="251.2820512820513" y="795.7105263157895" stroke="none" fill="hsla(138, 51%, 71%, 1.00)" rx="4.289473684210526" transform="rotate(45, 266.6666666666667, 800)"></rect><rect width="8.578947368421051" height="30.76923076923077" x="262.37719298245617" y="784.6153846153846" stroke="none" fill="hsla(138, 51%, 71%, 1.00)" rx="4.289473684210526" transform="rotate(45, 266.6666666666667, 800)"></rect><rect width="30.76923076923077" height="8.578947368421051" x="317.948717948718" y="795.7105263157895" stroke="none" fill="hsl(316, 73%, 52%)" rx="4.289473684210526" transform="rotate(45, 333.33333333333337, 800)"></rect><rect width="8.578947368421051" height="30.76923076923077" x="329.04385964912285" y="784.6153846153846" stroke="none" fill="hsl(316, 73%, 52%)" rx="4.289473684210526" transform="rotate(45, 333.33333333333337, 800)"></rect><rect width="30.76923076923077" height="8.578947368421051" x="384.6153846153847" y="795.7105263157895" stroke="none" fill="hsla(138, 51%, 71%, 1.00)" rx="4.289473684210526" transform="rotate(45, 400.00000000000006, 800)"></rect><rect width="8.578947368421051" height="30.76923076923077" x="395.71052631578954" y="784.6153846153846" stroke="none" fill="hsla(138, 51%, 71%, 1.00)" rx="4.289473684210526" transform="rotate(45, 400.00000000000006, 800)"></rect><rect width="30.76923076923077" height="8.578947368421051" x="451.2820512820514" y="795.7105263157895" stroke="none" fill="hsl(316, 73%, 52%)" rx="4.289473684210526" transform="rotate(45, 466.66666666666674, 800)"></rect><rect width="8.578947368421051" height="30.76923076923077" x="462.3771929824562" y="784.6153846153846" stroke="none" fill="hsl(316, 73%, 52%)" rx="4.289473684210526" transform="rotate(45, 466.66666666666674, 800)"></rect><rect width="30.76923076923077" height="8.578947368421051" x="517.948717948718" y="795.7105263157895" stroke="none" fill="hsla(138, 51%, 71%, 1.00)" rx="4.289473684210526" transform="rotate(45, 533.3333333333334, 800)"></rect><rect width="8.578947368421051" height="30.76923076923077" x="529.0438596491229" y="784.6153846153846" stroke="none" fill="hsla(138, 51%, 71%, 1.00)" rx="4.289473684210526" transform="rotate(45, 533.3333333333334, 800)"></rect><rect width="30.76923076923077" height="8.578947368421051" x="584.6153846153846" y="795.7105263157895" stroke="none" fill="hsl(316, 73%, 52%)" rx="4.289473684210526" transform="rotate(45, 600, 800)"></rect><rect width="8.578947368421051" height="30.76923076923077" x="595.7105263157895" y="784.6153846153846" stroke="none" fill="hsl(316, 73%, 52%)" rx="4.289473684210526" transform="rotate(45, 600, 800)"></rect><rect width="30.76923076923077" height="8.578947368421051" x="651.2820512820513" y="795.7105263157895" stroke="none" fill="hsla(138, 51%, 71%, 1.00)" rx="4.289473684210526" transform="rotate(45, 666.6666666666666, 800)"></rect><rect width="8.578947368421051" height="30.76923076923077" x="662.3771929824561" y="784.6153846153846" stroke="none" fill="hsla(138, 51%, 71%, 1.00)" rx="4.289473684210526" transform="rotate(45, 666.6666666666666, 800)"></rect><rect width="30.76923076923077" height="8.578947368421051" x="717.9487179487179" y="795.7105263157895" stroke="none" fill="hsl(316, 73%, 52%)" rx="4.289473684210526" transform="rotate(45, 733.3333333333333, 800)"></rect><rect width="8.578947368421051" height="30.76923076923077" x="729.0438596491227" y="784.6153846153846" stroke="none" fill="hsl(316, 73%, 52%)" rx="4.289473684210526" transform="rotate(45, 733.3333333333333, 800)"></rect><rect width="30.76923076923077" height="8.578947368421051" x="784.6153846153845" y="795.7105263157895" stroke="none" fill="hsla(138, 51%, 71%, 1.00)" rx="4.289473684210526" transform="rotate(45, 799.9999999999999, 800)"></rect><rect width="8.578947368421051" height="30.76923076923077" x="795.7105263157894" y="784.6153846153846" stroke="none" fill="hsla(138, 51%, 71%, 1.00)" rx="4.289473684210526" transform="rotate(45, 799.9999999999999, 800)"></rect></g></svg>